HIERARCHY
ROOT root
{
	OFFSET 0.000000 0.000000 0.000000
	CHANNELS 6 Xposition Yposition Zposition Zrotation Yrotation Xrotation
	JOINT lhip
	{
		OFFSET 0.058581 -0.082280 -0.017664
		CHANNELS 3 Zrotation Yrotation Xrotation
		JOINT lknee
		{
			OFFSET 0.043451 -0.386469 0.008037
			CHANNELS 3 Zrotation Yrotation Xrotation
			JOINT lankle
			{
				OFFSET -0.014790 -0.426874 -0.037428
				CHANNELS 3 Zrotation Yrotation Xrotation
				JOINT ltoe
				{
					OFFSET 0.041054 -0.060286 0.122042
					CHANNELS 3 Zrotation Yrotation Xrotation
					End Site
					{
						OFFSET 0.000000 0.000000 0.000000
					}
				}
			}
		}
	}
	JOINT rhip
	{
		OFFSET -0.060310 -0.090513 -0.013543
		CHANNELS 3 Zrotation Yrotation Xrotation
		JOINT rknee
		{
			OFFSET -0.043257 -0.383688 -0.004843
			CHANNELS 3 Zrotation Yrotation Xrotation
			JOINT rankle
			{
				OFFSET 0.019056 -0.420046 -0.034562
				CHANNELS 3 Zrotation Yrotation Xrotation
				JOINT rtoe
				{
					OFFSET -0.034840 -0.062106 0.130323
					CHANNELS 3 Zrotation Yrotation Xrotation
					End Site
					{
						OFFSET 0.000000 0.000000 0.000000
					}
				}
			}
		}
	}
	JOINT lowerback
	{
		OFFSET 0.004439 0.124404 -0.038385
		CHANNELS 3 Zrotation Yrotation Xrotation
		JOINT upperback
		{
			OFFSET 0.004488 0.137956 0.026820
			CHANNELS 3 Zrotation Yrotation Xrotation
			JOINT chest
			{
				OFFSET -0.002265 0.056032 0.002855
				CHANNELS 3 Zrotation Yrotation Xrotation
				JOINT lowerneck
				{
					OFFSET -0.013390 0.211636 -0.033468
					CHANNELS 3 Zrotation Yrotation Xrotation
					JOINT upperneck
					{
						OFFSET 0.010113 0.088937 0.050410
						CHANNELS 3 Zrotation Yrotation Xrotation
						End Site
						{
							OFFSET 0.000000 0.000000 0.000000
						}
					}
				}
				JOINT lclavicle
				{
					OFFSET 0.071702 0.114000 -0.018898
					CHANNELS 3 Zrotation Yrotation Xrotation
					JOINT lshoulder
					{
						OFFSET 0.122921 0.045205 -0.019046
						CHANNELS 3 Zrotation Yrotation Xrotation
						JOINT lelbow
						{
							OFFSET 0.255332 -0.015649 -0.022946
							CHANNELS 3 Zrotation Yrotation Xrotation
							JOINT lwrist
							{
								OFFSET 0.265709 0.012698 -0.007375
								CHANNELS 3 Zrotation Yrotation Xrotation
								End Site
								{
									OFFSET 0.000000 0.000000 0.000000
								}
							}
						}
					}
				}
				JOINT rclavicle
				{
					OFFSET -0.082954 0.112472 -0.023707
					CHANNELS 3 Zrotation Yrotation Xrotation
					JOINT rshoulder
					{
						OFFSET -0.113228 0.046853 -0.008472
						CHANNELS 3 Zrotation Yrotation Xrotation
						JOINT relbow
						{
							OFFSET -0.260127 -0.014369 -0.031269
							CHANNELS 3 Zrotation Yrotation Xrotation
							JOINT rwrist
							{
								OFFSET -0.269108 0.006794 -0.006027
								CHANNELS 3 Zrotation Yrotation Xrotation
								End Site
								{
									OFFSET 0.000000 0.000000 0.000000
								}
							}
						}
					}
				}
			}
		}
	}
}
MOTION
Frames: 14
Frame Time: 0.033333
0.007723 1.328175 0.983349 -3.749729 -0.568031 85.782168 4.872516 -0.058029 -1.914041 -0.818013 -7.544507 10.141889 2.186006 9.466593 -10.043860 0.000000 -0.000000 0.000000 -5.389174 -4.796291 0.150249 -2.247153 -1.279017 8.442897 3.186699 -12.031961 -11.764159 0.000000 -0.000000 0.000000 -3.241153 5.076253 8.769609 -2.240726 -1.481363 10.123811 -1.010830 1.891829 1.078093 2.413892 5.629310 -7.837391 5.309497 4.060759 -9.055284 -29.863584 -12.668997 4.629238 -39.222412 -6.631271 11.784808 -3.542335 -36.885909 13.087915 8.364680 -2.042383 -1.173371 27.622584 16.516886 10.422922 41.821554 6.383525 16.310453 -5.324819 60.973251 2.349934 1.036911 5.570611 -26.105502 
0.005644 1.328177 0.983391 -3.809076 -0.628610 85.655984 4.970205 -0.076600 -1.815312 -0.820206 -7.368487 10.260732 2.127589 9.371358 -10.092212 0.000000 -0.000000 0.000000 -5.311140 -4.693028 0.235653 -2.269665 -1.389838 8.584511 3.055386 -12.011192 -11.931235 0.000000 -0.000000 0.000000 -3.244785 5.029549 8.845720 -2.276518 -1.452344 10.263174 -1.071638 1.902640 0.935532 2.555571 5.768723 -7.888182 5.252800 3.999923 -9.035683 -30.080491 -12.611364 4.747425 -39.053813 -6.511453 12.051909 -3.554104 -39.498482 13.763732 8.015063 -2.376177 -1.093723 27.753840 16.555715 10.407771 41.847074 6.504519 16.398760 -5.955783 62.496543 1.804322 0.746457 5.853033 -26.465203 
0.003890 1.328279 0.983482 -3.849908 -0.709051 85.524828 5.031197 -0.011306 -1.693589 -0.856685 -7.333415 10.353273 2.092686 9.255240 -10.105450 0.000000 -0.000000 0.000000 -5.277437 -4.602862 0.273967 -2.298882 -1.530020 8.795216 2.910704 -11.953187 -12.096352 0.000000 -0.000000 0.000000 -3.291708 5.008579 8.989853 -2.267564 -1.416944 10.415281 -1.067056 1.913381 0.701721 2.611549 5.860069 -7.888418 5.226505 3.955911 -9.084812 -30.241594 -12.692753 4.845266 -39.029369 -6.541752 12.337238 -3.438078 -42.042139 14.498778 7.868660 -2.665306 -0.925232 27.863220 16.648502 10.441530 41.865108 6.517519 16.391059 -6.824848 63.945068 1.009193 0.497396 6.110186 -27.055660 
0.002435 1.328339 0.983576 -3.899023 -0.764276 85.409880 5.076255 0.071356 -1.516578 -0.831027 -7.319114 10.295535 2.065958 9.133891 -10.108495 0.000000 -0.000000 0.000000 -5.228056 -4.517059 0.292309 -2.339948 -1.653664 8.995166 2.797331 -11.878402 -12.218189 0.000000 -0.000000 0.000000 -3.341715 4.967103 9.091128 -2.227787 -1.388614 10.596866 -1.018810 1.907095 0.518623 2.637120 5.982798 -7.924326 5.139416 3.976651 -9.146679 -30.330904 -12.802634 4.865774 -39.104011 -6.731456 12.638363 -3.250217 -44.582556 15.160539 7.930017 -2.825183 -0.914406 27.962588 16.775023 10.482489 41.829949 6.620165 16.392519 -7.746080 65.229043 0.142047 0.052347 6.314667 -27.652066 
0.001337 1.328379 0.983602 -3.916011 -0.789168 85.339693 5.117087 0.081006 -1.414077 -0.790220 -7.270801 10.245926 2.048544 9.043565 -10.141352 0.000000 -0.000000 0.000000 -5.172663 -4.455731 0.282211 -2.366445 -1.758529 9.176543 2.760431 -11.800885 -12.324836 0.000000 -0.000000 0.000000 -3.362382 4.910312 9.094438 -2.175550 -1.407865 10.789961 -0.967215 1.869779 0.445514 2.663062 6.194229 -8.037067 5.018554 4.071488 -9.170068 -30.332839 -12.983058 4.872083 -39.210237 -7.040412 12.939094 -2.973283 -47.168310 15.616008 8.142867 -2.869221 -0.952878 28.026407 16.936026 10.512650 41.799660 6.865239 16.401991 -8.758048 66.345136 -0.828720 -0.384396 6.389759 -28.190659 
0.000635 1.328541 0.983489 -3.892541 -0.809813 85.309697 5.151115 0.028327 -1.474479 -0.812418 -7.205534 10.386695 2.027839 8.982861 -10.213832 0.000000 -0.000000 0.000000 -5.152396 -4.413102 0.213092 -2.370001 -1.879244 9.396206 2.765055 -11.702765 -12.452481 0.000000 -0.000000 0.000000 -3.351211 4.863774 9.093144 -2.126622 -1.468812 10.935035 -0.941215 1.821483 0.441289 2.694817 6.476330 -8.208444 4.932141 4.155094 -9.167238 -30.267958 -13.272764 4.889660 -39.269054 -7.445828 13.220815 -2.567153 -49.721698 15.896804 8.401615 -2.986406 -0.902187 28.038006 17.115419 10.524799 41.808628 7.164596 16.393706 -9.912707 67.387317 -1.935237 -0.661094 6.317190 -28.855778 
0.000227 1.328847 0.983291 -3.890455 -0.821084 85.294606 5.194809 -0.044537 -1.634950 -0.886571 -7.124139 10.677303 2.034318 8.954158 -10.324936 0.000000 -0.000000 0.000000 -5.140875 -4.368358 0.095354 -2.379963 -2.001788 9.628145 2.681918 -11.609593 -12.568602 0.000000 -0.000000 0.000000 -3.318169 4.833129 9.170058 -2.087539 -1.516678 11.041588 -0.922470 1.801903 0.431127 2.689180 6.707894 -8.366698 4.847975 4.238162 -9.259153 -30.168897 -13.618376 4.844543 -39.251469 -7.917285 13.462125 -2.058400 -52.240182 15.909134 8.657030 -3.111726 -0.916548 28.017449 17.319710 10.546507 41.821327 7.420115 16.382456 -11.325651 68.439044 -3.364706 -0.843529 6.176262 -29.580147 
-0.000035 1.329250 0.983097 -3.947987 -0.826129 85.293678 5.231342 -0.120341 -1.809076 -0.954852 -7.009693 10.997594 2.074323 8.952742 -10.462479 0.000000 -0.000000 0.000000 -5.123900 -4.345461 -0.059758 -2.400577 -2.043819 9.855880 2.604108 -11.526209 -12.655433 0.000000 -0.000000 0.000000 -3.317939 4.848808 9.310879 -2.036636 -1.532588 11.134934 -0.865826 1.797763 0.406593 2.571272 6.821097 -8.463235 4.737654 4.428597 -9.599680 -30.021978 -13.981851 4.694418 -39.179712 -8.441598 13.717583 -1.673528 -54.580582 15.549934 9.522584 -3.124545 -1.380969 27.975595 17.552621 10.517145 41.796048 7.600578 16.457338 -12.901011 69.480550 -5.156362 -1.178348 6.006124 -30.185482 
-0.000193 1.329707 0.982864 -4.028338 -0.843789 85.318426 5.236230 -0.213959 -1.969601 -1.014625 -6.943200 11.255653 2.106634 9.032170 -10.605712 0.000000 -0.000000 0.000000 -5.122848 -4.379307 -0.275240 -2.414837 -1.963709 10.127539 2.663150 -11.467592 -12.734487 0.000000 -0.000000 0.000000 -3.388448 4.916982 9.469760 -1.959571 -1.565035 11.213313 -0.746719 1.767364 0.434769 2.231921 6.843245 -8.580920 4.675142 4.788351 -10.229800 -29.763144 -14.407385 4.529419 -39.115194 -9.006701 14.112463 -1.530573 -56.619014 14.502153 12.077091 -3.056527 -3.101442 27.876253 17.824041 10.325187 41.730598 7.787685 16.700197 -14.275989 70.470677 -7.176006 -1.820547 5.708205 -31.035146 
-0.000243 1.330242 0.982583 -4.090916 -0.864323 85.355486 5.250416 -0.323265 -2.111841 -1.098020 -6.922645 11.434808 2.094225 9.186715 -10.733982 0.000000 -0.000000 0.000000 -5.133852 -4.440139 -0.531963 -2.411205 -1.825168 10.442492 2.796900 -11.443013 -12.802843 0.000000 -0.000000 0.000000 -3.499387 4.980769 9.643829 -1.873978 -1.631472 11.290514 -0.559951 1.709431 0.530622 1.690002 6.790970 -8.813950 4.690176 5.222508 -10.981127 -29.356972 -14.928784 4.426055 -39.123952 -9.548122 14.712696 -1.214346 -58.752563 12.538550 15.819267 -2.544711 -6.229721 27.698047 18.213751 9.988820 41.643038 8.065948 17.068410 -15.331644 71.414028 -9.407683 -2.528730 5.289471 -32.730214 
-0.000271 1.330928 0.982354 -4.113766 -0.857630 85.404050 5.331668 -0.388949 -2.305631 -1.244627 -6.959722 11.666357 2.029828 9.323501 -10.849864 0.000000 -0.000000 0.000000 -5.120824 -4.472588 -0.795411 -2.392503 -1.731816 10.739639 2.868864 -11.431801 -12.850776 0.000000 -0.000000 0.000000 -3.617997 4.996133 9.838871 -1.791713 -1.729154 11.393463 -0.301505 1.645758 0.598115 1.069729 6.717664 -9.163504 4.722811 5.646583 -11.693313 -28.865331 -15.576931 4.382677 -39.267384 -9.928534 15.392049 0.055815 -61.440779 9.982852 19.703395 -1.408341 -8.682962 27.464938 18.835633 9.659712 41.600586 8.402106 17.355712 -16.510787 72.414765 -11.920373 -3.038597 4.752319 -34.987607 
-0.000397 1.331744 0.982259 -4.124601 -0.821930 85.447700 5.459842 -0.369638 -2.531959 -1.396328 -6.996883 11.959388 1.917517 9.338523 -10.962207 0.000000 -0.000000 0.000000 -5.086237 -4.470058 -1.018553 -2.366192 -1.754711 10.986395 2.880389 -11.346415 -12.879070 0.000000 -0.000000 0.000000 -3.733077 4.966521 10.075983 -1.714501 -1.832079 11.497854 -0.031602 1.590374 0.594718 0.622934 6.703763 -9.565782 4.715950 5.970493 -12.269479 -28.412763 -16.242745 4.311712 -39.425873 -10.281700 15.913098 2.587995 -64.710898 7.375944 23.348399 -0.583190 -9.012774 27.238249 19.609615 9.403506 41.696510 8.894858 17.471171 -18.110942 73.519849 -14.443322 -3.672135 4.240149 -36.860002 
-0.000580 1.332596 0.982270 -4.143765 -0.773985 85.516630 5.568317 -0.323527 -2.808393 -1.468469 -6.973393 12.259139 1.811480 9.245161 -11.060180 0.000000 -0.000000 0.000000 -5.069617 -4.470023 -1.242779 -2.317830 -1.897735 11.196151 2.895097 -11.124929 -12.869749 0.000000 -0.000000 0.000000 -3.801915 4.902209 10.341457 -1.664241 -1.929343 11.534338 0.143909 1.552625 0.561082 0.519643 6.834323 -10.033886 4.667060 6.143195 -12.669519 -28.072345 -16.773888 4.120423 -39.401996 -10.812236 16.177281 6.505915 -68.626514 4.560319 26.681563 -0.687495 -7.872986 27.111458 20.328055 9.177266 41.976046 9.675298 17.485183 -20.545552 74.801513 -17.061611 -4.747348 3.873088 -37.782338 
-0.000794 1.333526 0.982299 -4.208868 -0.723494 85.651767 5.666126 -0.277351 -3.224813 -1.479673 -6.781455 12.657062 1.732180 9.043219 -11.166555 0.000000 -0.000000 0.000000 -5.066446 -4.476517 -1.601890 -2.269179 -2.128137 11.502353 2.965461 -10.743075 -12.837329 0.000000 -0.000000 0.000000 -3.812302 4.827205 10.650708 -1.648790 -2.002986 11.415382 0.199508 1.558518 0.500647 0.726620 7.096172 -10.571449 4.636913 6.140627 -12.857696 -27.756552 -17.208460 3.798864 -39.222517 -11.552119 16.251784 12.955596 -73.252632 0.227543 29.495663 -1.599761 -6.247353 27.035636 20.926913 8.934902 42.543889 10.639996 17.447249 -25.216047 76.376457 -21.132847 -5.973685 3.609832 -38.226020 
